<?xml version="1.0" encoding="utf-8"?>

<!DOCTYPE svg PUBLIC "-//W3C//DTD SVG 1.1//EN" "http://www.w3.org/Graphics/SVG/1.1/DTD/svg11.dtd">

<svg version="1.1" id="Layer_1" xmlns="http://www.w3.org/2000/svg" xmlns:xlink="http://www.w3.org/1999/xlink" x="0px" y="0px" width="70px" height="70px"

	 viewBox="0 0 70 70" enable-background="new 0 0 70 70" xml:space="preserve">


			<g>

				<path fill="#742A90" d="M26.2,38.3c0,0.601-0.5,1.101-1.1,1.101H7.9c-0.6,0-1.1-0.5-1.1-1.101V25.7c0-0.6-0.5-1.1-1.1-1.1H2.2

					c-0.6,0-1.1,0.5-1.1,1.1V59.6C1.1,60.2,1.6,60.7,2.2,60.7h3.6c0.6,0,1.1-0.5,1.1-1.101V45.8c0-0.6,0.5-1.1,1.1-1.1h17.2

					c0.6,0,1.1,0.5,1.1,1.1v13.7c0,0.6,0.5,1.1,1.1,1.1H31c0.6,0,1.1-0.5,1.1-1.1V6c0-0.6-0.5-1.1-1.1-1.1h-3.6

					c-0.6,0-1.1,0.5-1.1,1.1v32.3H26.2z"/>

			</g>

			<g>

				<path fill="#742A90" d="M69.2,25.2c0.3-0.5,0.1-0.9-0.5-0.9h-4.3c-0.601,0-1.301,0.4-1.601,0.9l-8.2,13.3

					c-0.3,0.5-1,0.9-1.6,0.9h-8.2c-0.6,0-1.1-0.5-1.1-1.101V13.8c0-0.6-0.5-1.1-1.101-1.1H39c-0.6,0-1.1,0.5-1.1,1.1v45.7

					c0,0.6,0.5,1.1,1.1,1.1h3.6c0.601,0,1.101-0.5,1.101-1.1V45.8c0-0.6,0.5-1.1,1.1-1.1h7.8C53.2,44.7,53.9,45.1,54.2,45.6

					L62.8,59.7c0.3,0.5,1,0.899,1.601,0.899h4.3c0.6,0,0.8-0.399,0.5-0.899L59.1,43.3c-0.3-0.5-0.3-1.3,0-1.8L69.2,25.2z M56.7,42.3

					c0.1,0,0.1,0.101,0,0.2c-0.101,0-0.101,0-0.101-0.1C56.6,42.3,56.6,42.3,56.7,42.3z"/>

			</g>

</svg>